<?xml version="1.0" standalone="no"?>
<!DOCTYPE svg PUBLIC "-//W3C//DTD SVG 20010904//EN"
 "http://www.w3.org/TR/2001/REC-SVG-20010904/DTD/svg10.dtd">
<svg version="1.0" xmlns="http://www.w3.org/2000/svg"
 width="800.000000pt" height="450.000000pt" viewBox="0 0 800.000000 450.000000"
 preserveAspectRatio="xMidYMid meet">

<g transform="translate(0.000000,450.000000) scale(0.100000,-0.100000)"
fill="#000000" stroke="none">
<path d="M2558 3803 c-2 -5 -1 -84 2 -178 l6 -170 2 178 c2 159 0 193 -10 170z"/>
<path d="M2530 3230 c0 -5 4 -10 9 -10 6 0 13 5 16 10 3 6 -1 10 -9 10 -9 0
-16 -4 -16 -10z"/>
<path d="M2540 2929 c0 -5 5 -7 10 -4 6 3 10 8 10 11 0 2 -4 4 -10 4 -5 0 -10
-5 -10 -11z"/>
<path d="M2586 2875 c4 -8 8 -15 10 -15 2 0 4 7 4 15 0 8 -4 15 -10 15 -5 0
-7 -7 -4 -15z"/>
<path d="M4080 2877 c0 -2 6 -17 14 -33 8 -16 19 -41 25 -56 7 -17 17 -26 30
-25 19 1 19 2 -1 52 -11 27 -20 51 -21 51 -7 5 -47 15 -47 11z"/>
<path d="M4251 2874 c2 -5 17 -33 32 -61 25 -48 31 -53 61 -53 l34 0 -30 55
c-19 36 -36 55 -48 55 -10 0 -26 3 -36 7 -9 3 -15 2 -13 -3z"/>
<path d="M3860 2855 c-124 -19 -123 -18 -116 -83 3 -30 7 -55 8 -57 2 -1 32 6
68 16 l65 18 -45 1 c-40 1 -42 2 -20 11 13 6 41 7 62 4 21 -4 69 -1 107 6 l69
12 -21 43 c-24 51 -29 51 -177 29z"/>
<path d="M4015 2710 c-16 -4 -75 -17 -130 -30 -55 -12 -108 -24 -117 -26 -15
-5 -16 -25 -11 -247 3 -133 8 -245 12 -250 7 -8 24 22 84 153 l34 75 -29 5
c-16 3 -29 8 -28 13 4 75 -1 107 -17 109 -10 1 19 4 65 7 l83 6 24 53 24 52
-89 0 c-53 0 -90 4 -90 10 0 6 21 10 46 10 27 0 43 4 39 10 -3 6 1 10 9 10 25
0 126 34 126 42 0 4 -1 8 -2 7 -2 0 -16 -4 -33 -9z"/>
<path d="M4038 2616 c-27 -53 -48 -97 -48 -99 0 -1 36 -1 80 1 44 2 80 5 80 6
0 1 -7 26 -15 54 -14 44 -19 52 -40 52 -28 0 -29 3 -14 31 5 11 9 27 7 35 -2
9 -24 -28 -50 -80z"/>
<path d="M2475 2680 c-18 -8 -17 -9 8 -9 16 -1 26 3 22 9 -3 6 -7 10 -8 9 -1
0 -11 -4 -22 -9z"/>
<path d="M2540 2680 c0 -5 5 -10 11 -10 5 0 7 5 4 10 -3 6 -8 10 -11 10 -2 0
-4 -4 -4 -10z"/>
<path d="M2580 2675 c0 -8 5 -15 10 -15 6 0 10 7 10 15 0 8 -4 15 -10 15 -5 0
-10 -7 -10 -15z"/>
<path d="M4401 2571 c26 -61 30 -66 56 -63 15 2 30 5 31 7 2 2 -8 31 -23 64
-26 56 -30 60 -60 59 l-32 -1 28 -66z"/>
<path d="M2465 2620 c3 -5 12 -10 20 -10 8 0 17 5 20 10 4 6 -5 10 -20 10 -15
0 -24 -4 -20 -10z"/>
<path d="M2600 2625 c0 -2 9 -9 20 -15 16 -9 20 -8 20 5 0 8 -9 15 -20 15 -11
0 -20 -2 -20 -5z"/>
<path d="M4200 2578 c17 -48 50 -79 50 -46 -1 36 -29 93 -48 96 -21 3 -21 3
-2 -50z"/>
<path d="M3943 2418 c-30 -51 -173 -348 -173 -358 0 -13 -6 -14 107 14 54 13
134 31 178 40 44 10 87 20 95 24 8 4 -59 9 -150 12 l-165 6 203 2 202 2 0 23
c-1 12 -8 36 -16 52 -8 17 -12 23 -10 14 5 -17 -30 -39 -61 -39 -9 0 -13 -6
-10 -14 4 -10 -8 -15 -46 -19 -84 -9 -235 -9 -240 0 -3 5 1 30 10 56 l15 47
170 0 c168 0 169 0 163 21 -9 27 -13 49 -14 72 -1 15 -14 17 -133 17 -90 0
-128 3 -118 10 8 5 11 10 6 10 -5 0 -3 7 4 15 7 9 11 18 8 21 -3 3 -14 -10
-25 -28z m250 -245 c-7 -2 -19 -2 -25 0 -7 3 -2 5 12 5 14 0 19 -2 13 -5z"/>
<path d="M4473 2388 c3 -7 14 -37 23 -65 17 -50 20 -53 51 -53 18 0 33 4 33 9
0 5 -10 34 -21 65 -21 53 -24 56 -56 56 -24 0 -33 -4 -30 -12z"/>
<path d="M4264 2364 c4 -15 10 -39 13 -55 4 -23 11 -29 30 -29 17 0 23 4 20
14 -3 8 -11 32 -18 55 -9 30 -17 41 -32 41 -16 0 -18 -5 -13 -26z"/>
<path d="M1914 2362 c-6 -4 -14 -24 -17 -45 -6 -36 -5 -38 16 -31 27 8 23 2
30 47 6 37 -3 46 -29 29z"/>
<path d="M2606 2363 c-2 -2 -1 -14 2 -28 4 -21 6 -22 18 -10 18 18 18 42 -1
42 -8 0 -17 -2 -19 -4z"/>
<path d="M2450 2350 c0 -5 6 -10 13 -10 9 0 8 -3 -2 -9 -17 -11 -5 -51 15 -51
15 0 18 6 28 53 6 25 4 27 -24 27 -16 0 -30 -4 -30 -10z"/>
<path d="M1852 2337 c-18 -8 -22 -17 -20 -41 2 -25 7 -30 23 -28 27 5 27 5 23
45 -3 32 -5 33 -26 24z"/>
<path d="M1780 2314 c-12 -4 -14 -15 -12 -44 4 -44 5 -44 33 -30 13 8 19 21
19 45 0 34 -5 38 -40 29z"/>
<path d="M1655 2265 c-16 -7 -42 -18 -57 -24 -23 -9 -28 -17 -28 -47 0 -40 -3
-39 75 -11 36 14 41 19 46 56 6 45 6 45 -36 26z"/>
<path d="M1913 2270 c-18 -7 -23 -17 -23 -46 0 -29 3 -35 16 -30 9 3 20 6 25
6 5 0 9 18 7 40 -1 22 -2 40 -2 39 -1 0 -11 -4 -23 -9z"/>
<path d="M3290 2159 c0 -68 -3 -148 -7 -178 -4 -37 -3 -52 4 -48 6 4 9 16 6
27 -3 11 0 32 6 48 13 34 20 142 8 142 -5 0 -7 27 -6 60 1 33 -1 63 -4 67 -4
3 -7 -50 -7 -118z"/>
<path d="M1716 2263 c7 -4 14 -17 17 -28 5 -16 5 -15 4 4 -1 14 -9 26 -17 28
-10 3 -11 2 -4 -4z"/>
<path d="M4293 2246 c3 -8 9 -31 13 -50 5 -30 10 -36 31 -36 18 0 24 4 20 14
-3 8 -9 31 -13 50 -5 30 -10 36 -31 36 -18 0 -24 -4 -20 -14z"/>
<path d="M1837 2243 c-4 -3 -7 -22 -7 -41 0 -27 3 -33 16 -28 9 3 18 6 20 6 2
0 4 16 4 35 0 33 -16 46 -33 28z"/>
<path d="M2452 2233 c2 -12 12 -18 28 -18 16 0 26 6 28 18 3 13 -3 17 -28 17
-25 0 -31 -4 -28 -17z"/>
<path d="M2606 2223 c8 -35 7 -33 21 -25 6 4 13 16 15 27 2 15 -3 21 -20 23
-20 3 -22 1 -16 -25z"/>
<path d="M2666 2242 c-2 -4 2 -18 10 -32 l13 -25 1 33 c0 29 -12 43 -24 24z"/>
<path d="M4531 2230 c-1 -18 16 -46 23 -40 2 3 -2 16 -9 30 -8 15 -14 19 -14
10z"/>
<path d="M1663 2183 c-24 -5 -31 -29 -31 -116 -1 -46 0 -48 26 -45 16 2 26 8
24 16 -1 8 1 11 5 9 5 -3 7 -29 6 -59 -1 -29 -2 -78 -3 -108 0 -37 -3 -50 -9
-41 -8 12 -14 13 -35 3 -22 -10 -26 -18 -26 -57 0 -42 -2 -46 -29 -51 -26 -5
-29 -11 -35 -57 -3 -29 -6 -66 -6 -84 0 -31 1 -32 30 -22 27 10 30 15 30 55 0
37 3 44 19 44 41 0 51 11 51 55 0 36 3 43 23 48 12 2 29 7 37 9 8 3 12 3 8 1
-5 -3 -8 -22 -8 -44 0 -37 2 -39 30 -39 28 0 30 2 32 43 1 42 1 42 5 5 l4 -36
35 10 c20 5 38 7 42 4 3 -3 0 -6 -6 -6 -7 0 -12 -16 -12 -40 0 -32 4 -40 19
-40 10 0 24 6 30 14 13 16 11 68 -4 78 -6 5 -6 8 2 8 8 0 12 27 12 90 0 49 3
130 7 180 3 49 3 90 1 90 -3 0 -17 -4 -31 -10 -24 -9 -26 -13 -25 -75 1 -36
-2 -69 -5 -72 -3 -4 -6 3 -6 15 0 17 -6 22 -25 22 -23 0 -25 -3 -25 -49 0 -42
-3 -49 -22 -54 -28 -8 -36 -1 -9 8 18 5 20 14 20 90 0 74 -2 83 -17 79 -15 -5
-15 -4 1 6 11 7 17 24 17 51 0 37 -1 39 -21 29 -11 -7 -33 -14 -47 -16 -15 -3
-31 -9 -36 -15 -6 -5 -19 -8 -30 -8 -17 1 -18 2 -3 6 12 3 17 15 17 44 0 21
-1 38 -2 38 -2 -1 -13 -4 -25 -6z m94 -115 c-3 -7 -5 -2 -5 12 0 14 2 19 5 13
2 -7 2 -19 0 -25z m3 -28 c0 -5 -10 -10 -22 -10 -19 0 -20 2 -8 10 19 13 30
13 30 0z m-5 -79 c3 -5 1 -12 -5 -16 -5 -3 -10 1 -10 9 0 18 6 21 15 7z m-4
-113 c-4 -27 -6 -29 -9 -10 -2 12 -9 22 -15 22 -7 0 -6 4 3 10 24 15 27 12 21
-22z m-134 -150 c-3 -7 -5 -2 -5 12 0 14 2 19 5 13 2 -7 2 -19 0 -25z m-24
-45 c-7 -2 -19 -2 -25 0 -7 3 -2 5 12 5 14 0 19 -2 13 -5z"/>
<path d="M1908 2173 c-13 -3 -18 -15 -18 -39 0 -57 42 -41 49 19 2 27 0 28
-31 20z"/>
<path d="M2681 2100 c-1 -47 -4 -120 -7 -162 -4 -62 -3 -77 8 -73 10 4 12 35
10 138 -3 164 -8 209 -11 97z"/>
<path d="M4550 2168 c0 -7 13 -60 29 -118 15 -58 39 -161 51 -230 12 -69 27
-131 33 -137 6 -9 6 -13 -1 -13 -6 0 -8 -17 -5 -42 9 -85 10 -88 48 -88 l35 0
0 -58 0 -59 -29 5 c-16 2 -32 -1 -36 -8 -4 -6 -3 -62 1 -123 5 -65 10 -94 12
-69 3 37 6 42 28 42 24 0 24 -1 24 -87 0 -124 -5 -136 -47 -131 -37 4 -36 6
-47 -79 l-6 -43 39 0 c37 0 41 2 46 33 5 24 16 38 45 55 l39 22 4 -23 c2 -12
5 134 6 326 l1 347 -41 -21 c-23 -11 -45 -17 -49 -12 -4 4 -13 49 -19 98 -7
50 -21 124 -31 165 -11 41 -27 107 -36 145 -16 67 -43 134 -44 108 0 -9 -7
-10 -25 -3 -18 7 -25 6 -25 -2z m108 -252 c12 -3 12 -4 -3 -3 -11 1 -20 9 -21
17 0 8 1 10 3 3 2 -6 12 -14 21 -17z"/>
<path d="M1834 2148 c-9 -14 -13 -59 -7 -71 2 -4 13 -2 24 3 24 13 28 80 5 80
-8 0 -18 -5 -22 -12z"/>
<path d="M4317 2143 c-2 -1 1 -27 6 -56 9 -50 12 -54 38 -53 29 1 30 7 9 85
-5 21 -41 37 -53 24z"/>
<path d="M3330 2111 c0 -5 11 -12 24 -15 13 -3 42 -24 65 -46 22 -22 40 -34
38 -27 -2 13 -25 37 -73 73 -32 25 -54 31 -54 15z"/>
<path d="M4184 1978 c-38 -57 -103 -152 -144 -211 -41 -60 -79 -116 -85 -125
-5 -10 -12 -19 -15 -22 -3 -3 -31 -44 -63 -92 -32 -48 -62 -90 -67 -93 -6 -4
-10 -13 -10 -21 0 -16 30 -18 74 -5 17 5 114 17 216 26 101 10 190 20 197 22
7 3 13 20 13 39 l0 34 -190 0 c-125 0 -190 4 -190 10 0 6 6 10 13 9 6 -1 92
-1 190 0 l177 1 0 55 0 55 -152 2 -153 2 137 5 c75 3 140 9 144 14 4 4 2 7 -5
7 -7 0 -19 7 -28 15 -12 12 -13 19 -3 30 10 12 9 15 -4 15 -9 0 -16 4 -16 9 0
5 -33 13 -72 19 l-73 9 108 2 107 1 0 55 0 55 -60 0 c-33 0 -60 4 -60 8 0 13
55 97 78 118 12 12 17 25 13 37 -5 14 -22 -4 -77 -85z m-81 -465 c-13 -2 -35
-2 -50 0 -16 2 -5 4 22 4 28 0 40 -2 28 -4z"/>
<path d="M4075 2041 c-49 -10 -137 -26 -194 -36 -56 -10 -105 -24 -107 -30 -3
-6 -1 -123 3 -260 6 -184 11 -249 21 -253 6 -2 12 1 12 8 0 6 42 75 93 153 50
78 97 149 102 158 6 9 25 35 43 59 17 24 32 47 32 52 0 4 -24 9 -52 9 -29 1
-44 3 -33 6 11 2 31 6 45 9 l25 6 -22 9 c-15 5 -21 14 -17 24 4 8 1 22 -6 29
-9 12 -7 17 8 25 20 10 72 21 126 24 16 1 31 8 34 15 5 15 -1 15 -113 -7z"/>
<path d="M2612 1982 c-1 -33 2 -51 8 -47 6 3 10 2 10 -4 0 -15 -29 -21 -95
-17 -75 3 -85 0 -85 -30 0 -19 5 -24 24 -24 14 0 28 5 31 10 4 6 11 8 16 4 5
-3 16 -1 24 6 10 9 16 7 24 -7 10 -17 10 -17 11 1 0 18 1 18 18 3 32 -30 42
-21 42 38 0 30 -4 55 -9 55 -6 0 -12 15 -14 33 -2 21 -4 15 -5 -21z"/>
<path d="M3480 1993 c5 -2 10 -11 10 -18 0 -8 4 -17 10 -20 6 -4 7 2 1 16 -4
13 -13 24 -20 25 -6 1 -7 0 -1 -3z"/>
<path d="M5893 1913 c0 -35 -3 -66 -6 -70 -4 -3 -7 -48 -7 -99 l0 -92 -27 -5
c-16 -3 -31 0 -34 5 -4 6 -14 0 -24 -16 -14 -21 -22 -25 -44 -19 -14 3 -27 10
-29 15 -5 11 -42 10 -42 -2 0 -5 -9 -10 -21 -10 -11 0 -18 4 -14 9 3 5 1 12
-4 15 -12 8 -193 -193 -288 -319 -42 -55 -79 -101 -82 -103 -8 -3 -34 90 -50
178 -7 36 -16 79 -21 95 -4 17 -19 74 -31 128 l-23 98 -31 -3 c-26 -3 -30 -7
-28 -30 1 -19 -3 -28 -13 -28 -14 0 -18 10 -15 43 2 12 -5 17 -24 17 l-26 0 3
-170 c2 -94 0 -170 -4 -170 -4 0 -7 -38 -7 -85 l0 -85 29 0 c25 0 29 4 33 33
l4 32 1 -32 2 -32 93 -4 92 -3 -92 -2 -93 -2 0 -80 0 -80 34 0 c32 0 35 3 39
33 4 31 4 31 5 -5 2 -38 2 -38 -39 -38 l-41 0 3 -42 c1 -24 -2 -64 -6 -90 -7
-46 -9 -48 -41 -48 -26 0 -32 -3 -27 -15 5 -14 -10 -15 -128 -11 -74 2 -159 5
-188 5 -43 1 -52 4 -43 13 7 7 11 28 11 48 -1 26 -3 29 -6 10 -2 -14 -9 -37
-14 -52 l-11 -27 -126 -3 c-70 -2 -145 -2 -167 0 l-41 3 1 58 c0 33 3 55 6 49
3 -5 11 39 18 99 6 59 14 131 17 158 4 37 3 46 -5 35 -6 -8 -11 -10 -12 -5 -1
6 -7 -17 -14 -50 -9 -46 -13 -52 -14 -27 l-1 32 -70 0 c-64 0 -86 9 -60 25 6
3 10 14 10 23 0 12 -15 2 -45 -30 -24 -27 -47 -44 -50 -38 -5 9 15 31 59 63
19 14 19 16 3 41 -13 19 -14 27 -5 28 7 1 -32 5 -87 8 l-100 6 128 2 c70 1
127 5 127 10 0 4 13 23 30 42 16 19 26 38 22 42 -5 5 -42 4 -83 -2 -41 -6
-126 -17 -189 -25 -63 -8 -130 -17 -147 -20 l-33 -6 0 -148 c0 -82 -3 -163 -6
-180 -7 -34 -24 -42 -24 -11 0 17 -7 20 -40 20 -22 0 -40 5 -40 11 0 5 -4 8
-9 4 -22 -13 -30 42 -31 216 -2 240 -2 239 -51 239 l-39 0 0 -332 0 -333 -123
1 c-67 0 -148 1 -180 2 l-59 2 8 33 c4 17 8 40 8 50 0 21 1 21 21 1 9 -9 19
-14 22 -11 3 4 7 204 10 447 4 420 4 440 -14 440 -40 0 -46 -14 -40 -91 7 -77
12 -739 6 -742 -2 -1 -51 0 -109 3 l-105 5 -1 121 c0 66 -3 125 -7 131 -4 6
-1 14 5 16 10 4 9 8 -2 16 -13 10 -13 12 0 22 11 8 12 12 2 16 -6 2 -10 8 -7
13 3 4 -2 13 -10 20 -7 6 -12 17 -9 25 6 14 -34 47 -48 39 -4 -3 -8 6 -8 20 0
14 -4 26 -9 26 -9 0 -18 -123 -27 -408 -7 -199 -8 -203 -28 -200 -19 3 -21 11
-24 76 -2 39 -6 72 -9 72 -3 0 -11 -7 -18 -16 -9 -14 -32 -17 -115 -18 l-103
-1 -1 -54 c-1 -80 -24 -79 -29 1 l-3 63 -2 -62 c-2 -50 -5 -63 -18 -63 -12 0
-15 11 -13 55 1 30 0 58 -4 62 -4 3 -7 -21 -7 -55 0 -69 -19 -87 -21 -19 -1
23 -1 47 0 54 1 6 -3 14 -9 18 -6 4 -10 -16 -10 -54 0 -90 -17 -74 -25 24 -8
93 2 208 16 199 5 -3 10 -33 10 -67 1 -34 3 -51 6 -37 11 77 15 90 23 90 6 0
11 -26 11 -57 l2 -58 6 57 c10 91 25 84 34 -17 3 -31 4 -27 5 17 1 31 6 59 11
62 9 6 21 -40 21 -84 0 -25 4 -29 41 -35 23 -4 70 -4 104 0 l64 6 3 95 c2 52
0 94 -4 94 -17 0 -6 21 15 30 17 7 18 9 5 9 -23 1 -23 30 -2 46 10 7 19 31 21
61 l5 50 -78 11 c-44 6 -101 10 -129 9 -49 -1 -50 -2 -56 -36 l-6 -35 -2 33
c-1 20 -6 32 -15 32 -9 0 -16 -13 -19 -32 l-4 -33 -1 33 c-2 29 -5 32 -32 32
-27 0 -30 -3 -30 -30 0 -20 -5 -30 -15 -30 -12 0 -15 15 -15 78 0 42 5 84 10
92 7 11 10 7 10 -17 0 -33 14 -51 25 -33 4 6 12 7 18 3 17 -11 51 -10 60 2 6
6 10 6 14 -2 3 -9 30 -13 84 -13 l79 0 0 165 c0 158 -1 165 -20 165 -16 0 -20
7 -20 30 0 17 -4 30 -9 30 -13 0 -19 -80 -13 -180 4 -77 2 -90 -11 -90 -13 0
-15 20 -16 131 0 73 -3 134 -5 137 -11 10 -37 -22 -33 -40 5 -16 -2 -18 -73
-18 -53 0 -80 -4 -82 -12 -3 -7 -1 -34 4 -61 13 -69 7 -142 -12 -142 -13 0
-15 27 -14 183 l1 182 -34 0 c-29 0 -33 -3 -33 -25 0 -16 6 -25 15 -25 8 0 15
-9 15 -20 0 -11 5 -20 10 -20 6 0 10 -9 10 -20 0 -29 -37 -27 -43 3 -2 12 -5
-40 -6 -115 l-1 -138 -25 0 c-24 0 -25 -3 -25 -59 0 -53 2 -60 22 -63 30 -4
32 -35 2 -42 -23 -6 -24 -9 -24 -110 0 -101 -1 -105 -22 -108 -13 -2 -22 -6
-20 -10 1 -5 2 -46 2 -92 0 -81 1 -84 25 -90 14 -4 25 -13 25 -20 0 -8 -11
-17 -25 -20 -18 -5 -25 -13 -25 -30 0 -13 -3 -38 -6 -55 -6 -27 -10 -31 -33
-28 -18 2 -27 11 -29 25 -5 30 -43 31 -39 1 1 -12 -4 -24 -10 -26 -8 -3 -13 6
-14 24 -2 26 -2 27 -6 3 l-5 -24 -14 24 -13 25 -1 -27 c0 -29 -6 -33 -34 -22
-19 7 -22 34 -3 34 9 0 8 3 -2 9 -11 7 -11 9 0 14 10 4 9 6 -3 6 -12 1 -18 -9
-20 -31 -2 -18 -7 -32 -13 -30 -5 2 -9 16 -7 33 1 16 -3 29 -9 29 -5 0 -7 -5
-3 -12 5 -8 0 -9 -14 -6 -19 5 -22 2 -22 -23 0 -27 -3 -29 -36 -29 l-37 0 4
133 4 132 -30 -2 -30 -2 3 89 3 90 -30 0 c-30 0 -31 1 -31 46 0 46 0 46 -30
41 -29 -6 -30 -6 -30 33 0 37 -2 40 -29 40 -16 0 -31 -5 -33 -10 -2 -6 -2 15
-1 46 0 30 3 57 5 60 9 9 -5 63 -18 68 -32 12 -42 -21 -43 -136 -1 -62 -5
-116 -9 -120 -4 -4 -20 -9 -35 -10 -25 -2 -27 -6 -27 -43 0 -39 1 -40 32 -40
31 0 33 -2 35 -35 3 -65 3 -66 11 -53 4 7 25 15 47 18 l40 7 -1 -34 c-1 -18 5
-40 12 -48 14 -16 13 -90 -1 -161 -6 -31 -10 -36 -28 -31 -12 3 -25 10 -29 16
-5 7 -8 5 -8 -6 0 -14 -9 -15 -60 -11 -55 5 -60 4 -60 -14 0 -16 -5 -19 -30
-15 l-30 4 0 124 0 124 -55 0 -54 0 -3 -92 c-3 -86 -5 -93 -24 -96 -32 -5 -37
43 -40 368 -1 157 -2 307 -3 334 l-1 50 -26 -35 c-57 -76 -55 -62 -54 -445 l1
-354 -60 0 c-65 0 -70 5 -72 68 -1 37 -1 37 -8 7 -4 -18 -10 30 -15 125 -7
153 -17 201 -29 141 -4 -17 -10 -31 -15 -31 -14 0 -37 64 -34 98 3 29 6 32 38
32 19 0 34 3 34 8 0 4 -21 6 -47 4 l-48 -4 0 -241 0 -242 -27 -3 -28 -3 -2
123 -1 123 -7 -115 c-4 -63 -8 -116 -9 -117 0 -2 -41 -3 -90 -3 l-90 0 -3 48
-3 47 -162 0 -163 0 -1 35 -2 35 -6 -40 -6 -40 -45 3 c-66 4 -70 7 -71 54 -1
24 -3 35 -6 25 -2 -9 -9 -14 -15 -11 -7 5 -9 0 -6 -14 4 -12 2 -20 -3 -16 -5
3 -9 12 -9 20 0 8 -6 14 -14 14 -8 0 -18 9 -21 20 -3 11 -13 20 -20 20 -9 0
-16 17 -21 45 -9 60 -24 47 -24 -21 0 -47 -2 -54 -20 -54 -18 0 -20 7 -21 78
-2 64 -3 70 -9 37 l-7 -40 -2 38 c-1 30 -5 37 -21 37 -20 0 -20 -7 -20 -329
l0 -330 22 -4 23 -4 -22 -2 c-22 -1 -23 -5 -23 -76 0 -73 1 -75 24 -75 24 0
24 2 19 58 -3 31 -11 63 -17 71 -9 12 -5 13 26 8 30 -4 38 -2 38 9 0 11 14 14
63 14 34 -1 210 2 390 6 l329 6 10 30 c13 36 42 34 46 -4 2 -19 11 -28 30 -33
15 -4 30 -12 34 -18 5 -8 8 -6 8 6 0 10 8 17 19 17 26 0 36 -17 14 -23 -14 -4
-13 -5 4 -6 18 -1 23 6 30 42 l9 42 52 3 52 3 0 -39 c0 -45 11 -53 68 -51 20
1 29 3 20 6 -52 13 12 33 110 33 40 0 52 -4 52 -15 0 -11 -13 -15 -52 -17
l-53 -1 55 -6 c30 -3 56 -6 57 -5 2 0 4 14 7 30 2 16 7 37 11 47 9 21 45 23
45 2 0 -13 336 -15 2963 -15 2588 1 2964 2 2981 15 25 19 55 19 62 0 5 -12 26
-15 105 -15 88 0 99 2 109 20 9 17 17 19 58 14 26 -4 53 -12 60 -19 9 -8 28
-9 65 -4 108 17 97 -4 97 188 l0 169 -67 12 c-67 11 -74 9 -86 -24 -2 -5 -29
-11 -60 -14 l-57 -4 0 68 c0 43 -4 64 -9 55 -16 -25 -46 37 -46 96 l0 53 -57
0 c-64 0 -61 5 -73 -115 -13 -135 -13 -135 -51 -135 -24 0 -34 5 -34 15 0 10
-10 15 -28 15 -18 0 -38 11 -57 30 -26 27 -35 30 -92 30 -52 0 -64 -3 -73 -20
-9 -16 -21 -20 -64 -20 l-54 0 -7 81 c-4 45 -11 76 -15 69 -9 -14 -50 -4 -50
12 0 5 -7 7 -16 4 -16 -6 -37 9 -47 34 -4 10 -6 8 -6 -7 -1 -12 -5 -25 -11
-28 -5 -3 -10 -42 -10 -86 l0 -80 -32 3 -33 3 -3 83 c-2 71 -5 83 -18 78 -9
-3 -18 -6 -20 -6 -2 0 -4 -8 -5 -17 0 -15 -2 -15 -9 2 -7 17 -9 15 -9 -13 -1
-33 -20 -50 -41 -37 -8 5 -6 11 5 19 12 9 15 24 12 61 l-3 50 -2 -52 -2 -53
-42 -1 c-24 0 -38 -3 -33 -5 6 -2 9 -22 7 -45 -3 -29 -10 -43 -24 -48 -17 -6
-7 -13 52 -40 54 -24 70 -36 66 -47 -3 -9 -6 -22 -6 -30 0 -11 -24 -14 -124
-14 l-125 0 -3 26 c-2 20 -14 30 -61 49 -110 44 -192 101 -281 196 -71 75 -95
110 -141 202 -84 172 -116 297 -155 612 l-8 70 1 -62z m-3490 -150 c-7 -2 -19
-2 -25 0 -7 3 -2 5 12 5 14 0 19 -2 13 -5z m167 -149 c0 -35 -4 -64 -9 -64
-10 0 -20 94 -13 122 9 38 22 3 22 -58z m30 29 c-1 -24 -2 -26 -11 -10 -5 9
-7 22 -4 27 10 17 15 11 15 -17z m-70 0 c0 -10 3 -35 6 -55 5 -29 3 -38 -7
-38 -10 0 -14 15 -14 55 0 30 3 55 8 55 4 0 7 -8 7 -17z m-34 -71 c-11 -10
-13 3 -7 43 l6 40 3 -39 c2 -21 1 -41 -2 -44z m2544 68 c0 -5 -4 -10 -10 -10
-5 0 -10 5 -10 10 0 6 5 10 10 10 6 0 10 -4 10 -10z m60 0 c11 -7 7 -10 -17
-10 -18 0 -33 5 -33 10 0 13 30 13 50 0z m-18 -45 c3 -16 1 -25 -7 -25 -7 0
-12 11 -12 25 0 14 3 25 7 25 4 0 10 -11 12 -25z m3 -45 c-3 -5 -12 -7 -20 -3
-21 7 -19 13 6 13 11 0 18 -4 14 -10z m-5 -80 c0 -5 -5 -10 -11 -10 -5 0 -7 5
-4 10 3 6 8 10 11 10 2 0 4 -4 4 -10z m8 -87 c-9 -2 -18 -16 -20 -31 -3 -26
-4 -26 -9 6 -5 29 -3 32 20 31 16 -1 19 -3 9 -6z m-2601 -35 c-3 -8 -6 -5 -6
6 -1 11 2 17 5 13 3 -3 4 -12 1 -19z m260 0 c-3 -8 -6 -5 -6 6 -1 11 2 17 5
13 3 -3 4 -12 1 -19z m-1499 -84 c-3 -14 -5 -12 -10 9 -3 19 -2 25 4 19 6 -6
8 -18 6 -28z m3832 32 c0 -3 -4 -8 -10 -11 -5 -3 -10 -1 -10 4 0 6 5 11 10 11
6 0 10 -2 10 -4z m-2625 -16 c3 -5 1 -10 -4 -10 -6 0 -11 5 -11 10 0 6 2 10 4
10 3 0 8 -4 11 -10z m-785 -35 c10 -12 10 -15 -4 -15 -9 0 -16 7 -16 15 0 8 2
15 4 15 2 0 9 -7 16 -15z m53 -2 c-7 -2 -19 -2 -25 0 -7 3 -2 5 12 5 14 0 19
-2 13 -5z m-473 -23 c0 -11 7 -20 15 -20 17 0 18 -2 9 -24 -3 -9 -12 -16 -19
-16 -8 0 -16 -10 -18 -22 -3 -18 -5 -15 -7 10 -6 75 -5 92 8 92 6 0 12 -9 12
-20z m1210 16 c0 -3 -4 -8 -10 -11 -5 -3 -10 -1 -10 4 0 6 5 11 10 11 6 0 10
-2 10 -4z m3416 -198 c-3 -111 -8 -204 -11 -206 -6 -7 -314 -6 -321 1 -8 8 57
127 111 203 49 69 191 204 213 204 13 0 14 -27 8 -202z m-3416 142 c0 -5 -4
-10 -10 -10 -5 0 -10 5 -10 10 0 6 5 10 10 10 6 0 10 -4 10 -10z m40 0 c0 -5
-5 -10 -11 -10 -5 0 -7 5 -4 10 3 6 8 10 11 10 2 0 4 -4 4 -10z m34 -11 c-3
-5 -10 -7 -15 -3 -5 3 -7 10 -3 15 3 5 10 7 15 3 5 -3 7 -10 3 -15z m2626 -49
c0 -5 -4 -10 -10 -10 -5 0 -10 5 -10 10 0 6 5 10 10 10 6 0 10 -4 10 -10z
m-1124 -25 c-3 -9 -11 -13 -16 -10 -8 5 -7 11 1 21 14 18 24 11 15 -11z m1970
-112 c43 -56 103 -110 146 -129 21 -9 38 -21 38 -26 0 -4 -56 -8 -125 -8
l-125 0 0 148 1 147 19 -48 c10 -27 31 -64 46 -84z m-1706 80 c0 -7 -6 -13
-14 -13 -9 0 -12 8 -8 26 3 19 7 22 13 12 5 -7 9 -19 9 -25z m-285 8 c3 -5 0
-13 -6 -17 -7 -4 -9 -3 -5 4 3 5 0 13 -6 15 -9 4 -10 6 -1 6 6 1 14 -3 18 -8z
m2834 -31 c0 -10 -3 -8 -9 5 -12 27 -12 43 0 25 5 -8 9 -22 9 -30z m-2859 10
c0 -5 -5 -10 -11 -10 -5 0 -7 5 -4 10 3 6 8 10 11 10 2 0 4 -4 4 -10z m163 3
c-7 -2 -19 -2 -25 0 -7 3 -2 5 12 5 14 0 19 -2 13 -5z m-191 -45 c-7 -7 -12
-8 -12 -2 0 14 12 26 19 19 2 -3 -1 -11 -7 -17z m305 -50 c-3 -7 -5 -2 -5 12
0 14 2 19 5 13 2 -7 2 -19 0 -25z m-279 -25 c-10 -2 -26 -2 -35 0 -10 3 -2 5
17 5 19 0 27 -2 18 -5z m258 -15 c-3 -13 -6 -34 -6 -48 -1 -47 -12 -53 -79
-45 -55 6 -64 10 -74 34 -6 14 -11 33 -11 41 -1 8 -11 16 -23 18 -13 2 -23 8
-23 13 0 5 49 9 111 9 111 0 111 0 105 -22z m-2752 -80 c6 -4 -13 -8 -41 -8
-29 0 -53 5 -53 10 0 6 6 10 13 11 8 0 7 2 -2 6 -10 4 -5 10 15 18 26 10 31 9
43 -9 8 -12 20 -24 25 -28z m2300 7 c4 -12 -3 -15 -29 -15 -56 0 -55 27 1 29
12 1 24 -6 28 -14z m-219 -5 c3 -5 1 -10 -4 -10 -6 0 -11 5 -11 10 0 6 2 10 4
10 3 0 8 -4 11 -10z m-2177 -327 c-21 -2 -57 -2 -80 0 -24 2 -7 4 37 4 44 0
63 -2 43 -4z"/>
<path d="M3513 1875 c0 -33 2 -45 4 -27 2 18 2 45 0 60 -2 15 -4 0 -4 -33z"/>
<path d="M1588 1908 c-24 -8 -28 -15 -28 -49 0 -42 12 -49 44 -26 12 9 17 23
14 48 -3 34 -4 35 -30 27z"/>
<path d="M3301 1904 c0 -11 3 -14 6 -6 3 7 2 16 -1 19 -3 4 -6 -2 -5 -13z"/>
<path d="M4350 1883 c0 -10 3 -35 6 -55 6 -36 9 -38 42 -38 34 0 35 0 28 38
-3 20 -6 45 -6 55 0 13 -8 17 -35 17 -27 0 -35 -4 -35 -17z"/>
<path d="M5097 1883 c-4 -6 0 -24 8 -39 12 -23 15 -25 14 -9 -1 31 -15 60 -22
48z"/>
<path d="M5062 1850 c0 -19 2 -27 5 -17 2 9 2 25 0 35 -3 9 -5 1 -5 -18z"/>
<path d="M3302 1830 c0 -14 2 -19 5 -12 2 6 2 18 0 25 -3 6 -5 1 -5 -13z"/>
<path d="M5035 1800 l-30 -8 30 -2 c17 -1 24 -4 18 -7 -7 -2 -13 -12 -13 -21
0 -14 2 -14 9 -3 7 11 10 10 14 -5 2 -10 5 -2 6 19 0 20 0 36 -1 36 -2 -1 -16
-5 -33 -9z"/>
<path d="M5090 1793 c8 -3 23 -15 32 -27 l18 -21 0 21 c0 22 -18 35 -48 33
-14 0 -14 -2 -2 -6z"/>
<path d="M1837 1703 c-4 -3 -8 -18 -8 -32 -1 -25 -2 -25 -9 4 l-8 30 -1 -36
c-1 -26 3 -36 14 -36 8 0 15 3 16 6 1 10 4 71 3 71 0 0 -4 -3 -7 -7z"/>
<path d="M5659 1673 c-13 -16 -12 -17 4 -4 16 13 21 21 13 21 -2 0 -10 -8 -17
-17z"/>
<path d="M1752 1650 c0 -19 2 -27 5 -17 2 9 2 25 0 35 -3 9 -5 1 -5 -18z"/>
<path d="M4370 1490 c0 -93 0 -173 0 -177 0 -5 20 -9 45 -11 l45 -3 0 120 0
120 -32 4 -33 4 34 1 c33 2 34 3 27 40 -3 20 -6 45 -6 55 0 13 -9 17 -40 17
l-40 0 0 -170z"/>
<path d="M1870 1589 c0 -33 3 -40 16 -35 9 3 19 6 22 6 4 0 7 16 7 35 0 30 -3
35 -22 35 -20 0 -23 -5 -23 -41z"/>
<path d="M1810 1573 c0 -27 4 -34 18 -31 23 5 23 60 -1 64 -13 2 -17 -5 -17
-33z"/>
<path d="M1760 1579 c0 -5 -3 -8 -7 -6 -5 3 -8 -6 -8 -19 0 -19 5 -24 19 -22
22 3 31 58 9 58 -7 0 -13 -5 -13 -11z"/>
<path d="M1869 1538 c0 -2 -2 -40 -4 -85 -4 -82 -4 -83 19 -83 20 0 25 6 28
36 3 25 -1 38 -11 44 -10 6 -11 10 -3 10 18 0 16 67 -4 74 -17 6 -24 7 -25 4z"/>
<path d="M1816 1517 c-25 -18 -18 -61 12 -65 20 -3 22 1 22 37 0 44 -6 49 -34
28z"/>
<path d="M1750 1491 c0 -11 5 -23 10 -26 6 -3 10 3 10 14 0 11 -4 23 -10 26
-5 3 -10 -3 -10 -14z"/>
<path d="M2200 1370 c0 -83 1 -90 20 -90 11 0 20 6 20 13 0 8 4 7 10 -3 7 -10
10 14 10 78 l0 92 -30 0 -30 0 0 -90z"/>
<path d="M1810 1407 c0 -16 6 -23 20 -24 21 -2 24 5 14 31 -9 24 -34 19 -34
-7z"/>
<path d="M1752 1385 c-11 -12 -10 -15 3 -15 8 0 15 7 15 15 0 18 -2 18 -18 0z"/>
<path d="M4277 1380 c-10 -12 -21 -18 -26 -16 -5 3 -8 -2 -7 -12 0 -10 -5 -16
-14 -14 -8 2 -12 0 -8 -3 4 -4 3 -15 -1 -24 -8 -14 -3 -16 35 -12 l44 3 0 49
c0 27 -1 49 -3 49 -1 0 -10 -9 -20 -20z"/>
<path d="M1808 1363 c6 -2 18 -2 25 0 6 3 1 5 -13 5 -14 0 -19 -2 -12 -5z"/>
<path d="M1860 1326 c0 -26 24 -53 34 -37 3 5 5 21 4 35 -3 35 -38 37 -38 2z"/>
<path d="M2213 1235 c0 -22 2 -30 4 -17 2 12 2 30 0 40 -3 9 -5 -1 -4 -23z"/>
<path d="M3773 1190 c0 -30 2 -43 4 -27 2 15 2 39 0 55 -2 15 -4 2 -4 -28z"/>
<path d="M5002 1120 l0 -80 29 0 29 0 0 80 0 80 -29 0 -29 0 0 -80z"/>
<path d="M4356 1154 c-3 -9 -6 -33 -6 -55 0 -39 0 -39 38 -39 24 0 39 5 39 13
0 6 3 31 7 55 l8 42 -40 0 c-27 0 -42 -5 -46 -16z"/>
<path d="M6542 1120 c0 -19 2 -27 5 -17 2 9 2 25 0 35 -3 9 -5 1 -5 -18z"/>
<path d="M2160 1120 c0 -11 2 -20 4 -20 2 0 6 9 9 20 3 11 1 20 -4 20 -5 0 -9
-9 -9 -20z"/>
<path d="M2212 1105 c0 -16 2 -22 5 -12 2 9 2 23 0 30 -3 6 -5 -1 -5 -18z"/>
<path d="M4947 1103 c-2 -5 -1 -62 3 -128 4 -70 7 -95 8 -60 1 33 5 90 9 128
4 45 2 67 -5 67 -6 0 -13 -3 -15 -7z"/>
<path d="M3667 1083 c-4 -3 -7 -11 -7 -17 0 -6 5 -5 12 2 6 6 9 14 7 17 -3 3
-9 2 -12 -2z"/>
<path d="M6540 1047 c0 -15 31 -45 70 -70 25 -16 26 -16 28 13 3 35 -16 47
-46 31 -15 -8 -23 -7 -32 4 -6 8 -9 19 -5 25 3 5 1 10 -4 10 -6 0 -11 -6 -11
-13z"/>
<path d="M4340 1033 c0 -10 -3 -35 -7 -56 l-6 -38 33 3 c30 3 35 8 51 56 l18
52 -45 0 c-35 0 -44 -3 -44 -17z"/>
<path d="M5000 990 c0 -35 3 -40 24 -40 19 0 25 6 29 33 6 40 2 47 -29 47 -21
0 -24 -4 -24 -40z"/>
<path d="M2048 1003 c7 -3 16 -2 19 1 4 3 -2 6 -13 5 -11 0 -14 -3 -6 -6z"/>
<path d="M1988 973 c15 -3 22 -11 22 -28 0 -17 -7 -25 -22 -28 -20 -4 -19 -4
5 -6 25 -1 27 2 27 34 0 32 -2 35 -27 34 -24 -2 -25 -2 -5 -6z"/>
<path d="M2041 954 c0 -11 3 -14 6 -6 3 7 2 16 -1 19 -3 4 -6 -2 -5 -13z"/>
<path d="M2100 959 c0 -6 6 -9 13 -6 7 3 13 -3 14 -13 1 -11 -6 -21 -15 -23
-12 -3 -10 -5 6 -6 18 -1 22 4 22 29 0 23 -4 30 -20 30 -11 0 -20 -5 -20 -11z"/>
<path d="M2173 953 c-21 -8 -16 -43 6 -43 14 0 17 6 13 25 -2 14 -5 25 -6 24
0 0 -7 -3 -13 -6z"/>
<path d="M5002 903 c2 -30 7 -38 23 -38 16 0 21 8 23 38 3 34 1 37 -23 37 -24
0 -26 -3 -23 -37z"/>
<path d="M2035 920 c-4 -6 3 -10 14 -10 25 0 27 6 6 13 -8 4 -17 2 -20 -3z"/>
<path d="M2103 883 c9 -2 23 -2 30 0 6 3 -1 5 -18 5 -16 0 -22 -2 -12 -5z"/>
<path d="M2168 883 c7 -3 16 -2 19 1 4 3 -2 6 -13 5 -11 0 -14 -3 -6 -6z"/>
<path d="M1514 494 c3 -9 6 -20 6 -25 0 -5 39 -9 88 -8 69 1 81 3 57 10 -16 5
-47 7 -67 3 -25 -4 -38 -2 -38 5 0 14 -5 14 460 14 l395 -1 -265 8 c-146 4
-350 8 -454 9 -168 1 -187 -1 -182 -15z"/>
<path d="M2633 483 c48 -2 125 -2 170 0 45 1 6 3 -88 3 -93 0 -130 -2 -82 -3z"/>
<path d="M2953 483 c26 -2 67 -2 90 0 23 2 2 3 -48 3 -49 0 -68 -1 -42 -3z"/>
<path d="M3100 471 c-14 -5 36 -6 110 -4 74 3 140 6 145 8 21 7 -231 3 -255
-4z"/>
<path d="M3605 470 c28 -5 75 -8 105 -8 l55 1 -60 7 c-33 4 -80 8 -105 8 l-45
-1 50 -7z"/>
<path d="M1852 463 c70 -2 187 -2 260 0 73 1 16 3 -127 3 -143 0 -203 -2 -133
-3z"/>
<path d="M2617 463 c18 -2 50 -2 70 0 21 2 7 4 -32 4 -38 0 -55 -2 -38 -4z"/>
<path d="M2788 463 c23 -2 59 -2 80 0 20 2 1 4 -43 4 -44 0 -61 -2 -37 -4z"/>
<path d="M3438 463 c18 -2 45 -2 60 0 15 2 0 4 -33 4 -33 0 -45 -2 -27 -4z"/>
<path d="M4135 460 c127 -4 253 -4 280 0 28 4 -76 7 -230 7 l-280 0 230 -7z"/>
<path d="M4683 453 c9 -2 25 -2 35 0 9 3 1 5 -18 5 -19 0 -27 -2 -17 -5z"/>
<path d="M76 402 c-3 -20 -6 -54 -6 -74 l0 -38 143 0 c78 0 247 -3 376 -7
l234 -6 -7 56 -6 57 35 0 c27 0 33 3 28 16 -4 10 -14 14 -29 11 -13 -2 -24 -1
-24 2 0 3 -84 5 -187 4 -104 -1 -227 3 -275 8 -51 6 -120 6 -167 1 -44 -4 -87
-5 -94 0 -11 6 -16 -2 -21 -30z"/>
<path d="M935 422 c-3 -7 -5 -42 -5 -77 l0 -63 70 -4 71 -3 -3 78 -3 79 -62 2
c-45 1 -64 -2 -68 -12z"/>
<path d="M1370 429 c-36 -4 -82 -4 -102 -1 -25 3 -46 -1 -63 -12 -22 -15 -25
-23 -25 -76 l0 -60 58 -1 c31 -1 68 -2 81 -3 22 -1 25 3 25 33 l1 35 53 -3 52
-2 -1 33 c-1 60 -7 64 -79 57z m43 -16 c-7 -2 -19 -2 -25 0 -7 3 -2 5 12 5 14
0 19 -2 13 -5z"/>
<path d="M1511 353 l-2 -83 263 -2 c145 -1 290 -2 323 -3 33 -2 409 -5 835 -9
426 -3 876 -8 1000 -11 392 -8 988 -10 994 -4 3 3 3 27 0 52 l-7 47 -166 2
c-91 1 -188 2 -216 2 -27 1 -203 3 -390 5 -310 4 -326 5 -180 11 88 4 390 10
670 14 281 3 548 8 595 11 47 3 279 8 515 11 237 4 504 10 595 14 189 8 312 7
-2135 16 -858 3 -1815 6 -2126 8 l-565 2 -3 -83z m107 60 c-16 -2 -40 -2 -55
0 -16 2 -3 4 27 4 30 0 43 -2 28 -4z m745 0 c-24 -2 -62 -2 -85 0 -24 2 -5 4
42 4 47 0 66 -2 43 -4z"/>
<path d="M6680 420 l-165 -6 173 -2 c109 -1 172 2 172 8 0 6 -3 9 -7 8 -5 -1
-82 -5 -173 -8z"/>
<path d="M4950 285 l0 -55 248 -1 c144 -1 233 -4 214 -9 -19 -4 -129 -8 -245
-8 -117 1 -471 -2 -787 -5 -316 -4 -962 -10 -1435 -13 -473 -4 -866 -10 -873
-14 -13 -6 565 -13 2223 -26 369 -2 969 -7 1335 -10 l665 -6 52 89 51 88 -191
6 c-106 4 -432 9 -724 13 l-533 6 0 -55z"/>
<path d="M6510 280 c0 -44 5 -42 -89 -45 -48 -2 -56 -6 -69 -31 -10 -20 -11
-29 -3 -32 6 -2 11 -10 11 -18 0 -10 15 -14 60 -14 l60 0 1 33 c2 27 2 28 6 7
3 -14 10 -31 15 -37 8 -10 5 -13 -8 -14 -11 -1 -364 0 -786 1 l-768 2 0 -66 0
-66 239 0 c220 0 240 1 244 18 4 16 5 16 6 0 1 -17 69 -18 1271 -18 l1270 0 2
93 2 92 6 -95 6 -95 2 108 2 107 -459 0 -460 0 -4 -22 c-2 -13 -5 11 -6 53
l-1 76 -70 2 c-67 2 -71 1 -80 -24 -6 -15 -10 -53 -10 -85 0 -45 4 -61 17 -68
15 -9 15 -11 -1 -28 -15 -14 -19 -15 -26 -3 -7 10 -35 13 -119 13 -84 -1 -111
2 -111 12 0 9 26 12 110 10 60 -2 111 -2 113 1 2 2 2 14 0 27 -5 23 -11 25
-77 29 -39 2 -81 7 -93 12 -21 7 -23 4 -23 -26 0 -35 -14 -31 -16 4 0 12 -1
46 -2 75 l-2 52 -80 0 -80 0 0 -40z m735 -145 c0 -6 -47 -11 -114 -13 -103 -2
-113 -1 -101 13 11 13 32 15 114 13 59 -2 101 -7 101 -13z m-692 -2 c-7 -2
-19 -2 -25 0 -7 3 -2 5 12 5 14 0 19 -2 13 -5z m247 -30 c-74 -7 -80 -11 -80
-48 0 -28 -4 -35 -20 -35 -13 0 -20 7 -20 20 0 11 5 20 10 20 6 0 10 7 10 15
0 8 -9 15 -20 15 -11 0 -20 5 -20 10 0 6 35 9 88 8 48 0 71 -3 52 -5z m-530
-53 c-16 -40 -23 -33 -9 9 6 18 14 30 17 27 2 -3 -1 -19 -8 -36z m253 23 c-7
-2 -19 -2 -25 0 -7 3 -2 5 12 5 14 0 19 -2 13 -5z m101 -8 c-4 -8 -8 -15 -11
-15 -2 0 -11 7 -19 15 -14 13 -13 15 10 15 18 0 24 -4 20 -15z m450 -1 c11
-29 6 -44 -14 -44 -16 0 -20 7 -20 30 0 32 23 42 34 14z"/>
<path d="M6750 310 c0 -5 23 -10 50 -10 28 0 50 5 50 10 0 6 -22 10 -50 10
-27 0 -50 -4 -50 -10z"/>
<path d="M2208 153 c6 -2 18 -2 25 0 6 3 1 5 -13 5 -14 0 -19 -2 -12 -5z"/>
<path d="M1175 129 c-10 -16 16 -19 169 -18 86 0 160 -3 165 -6 18 -10 745
-24 757 -14 8 7 14 6 19 -1 3 -5 40 -10 82 -10 42 0 74 -2 71 -5 -3 -3 -553
-6 -1222 -6 -1014 0 -1216 -3 -1216 -14 0 -7 8 -16 18 -18 16 -4 16 -5 0 -6
-28 -2 -22 -31 6 -31 19 0 26 6 29 28 l4 27 2 -27 1 -28 327 0 c290 0 328 2
345 17 10 9 18 11 18 5 0 -6 -6 -13 -12 -15 -7 -3 128 -6 300 -6 302 -1 312 0
312 18 0 11 5 23 11 27 9 5 10 -1 5 -20 l-6 -26 410 0 c358 0 410 2 410 15 0
16 26 20 56 8 16 -6 16 -7 -2 -14 -10 -4 124 -8 299 -8 l319 -1 -4 54 c-1 30
0 52 5 49 4 -2 7 -26 7 -54 l0 -49 1035 0 1035 0 0 65 0 65 -1032 2 c-601 2
-1036 -1 -1039 -6 -4 -5 -15 -6 -24 -2 -10 3 -311 6 -669 6 -705 -2 -916 -1
-959 4 -15 2 -30 0 -32 -5z m1633 -26 c-15 -2 -42 -2 -60 0 -18 2 -6 4 27 4
33 0 48 -2 33 -4z"/>
<path d="M758 123 c7 -3 16 -2 19 1 4 3 -2 6 -13 5 -11 0 -14 -3 -6 -6z"/>
<path d="M1088 123 c12 -2 32 -2 45 0 12 2 2 4 -23 4 -25 0 -35 -2 -22 -4z"/>
</g>
</svg>
